# xmcd CD database file
#
# Track frame offsets:
#	150
#	5074
#	25142
#	45194
#	47285
#	66382
#	81920
#	87147
#	104807
#	126581
#	129784
#	149226
#	152771
#	173346
#	192786
#	194510
#	214799
#	235604
#	236863
#	252378
#	253727
#	272343
#	291243
#
# Disc length: 3941 seconds
#
# Revision: 1
# Processed by: cddbd v1.5.1PL0 Copyright (c) Steve Scherf et al.
# Submitted via: CDex 1.51
#
DISCID=4b0f6317
DTITLE=Christian Habekost - Palatinos
DYEAR=2004
DGENRE=Salsa
TTITLE0=Anrufbeantworter (1)
TTITLE1=De Riddim/El Ritmo
TTITLE2=Die Hitz
TTITLE3=Anrufbeantworter (2)
TTITLE4=Latin Lover
TTITLE5=Popp-Stars
TTITLE6=Anrufbeantworter (3)
TTITLE7=Palatinos
TTITLE8=Love Me
TTITLE9=Anrufbeantworter (4)
TTITLE10=Salsamania
TTITLE11=Anrufbeantworter (5)
TTITLE12=Halt die Gosch!
TTITLE13=Fleisch
TTITLE14=Anrufbeantworter (6)
TTITLE15=Cuba all inclusive
TTITLE16=La Vida
TTITLE17=Anrufbeantworter (7)
TTITLE18=Hardcore
TTITLE19=Anrufbeantworter (8)
TTITLE20=Barbie Man
TTITLE21=The Original Terrorist
TTITLE22=Anrufbeantworter (9)
EXTD=YEAR: 2004
EXTT0=
EXTT1=
EXTT2=
EXTT3=
EXTT4=
EXTT5=
EXTT6=
EXTT7=
EXTT8=
EXTT9=
EXTT10=
EXTT11=
EXTT12=
EXTT13=
EXTT14=
EXTT15=
EXTT16=
EXTT17=
EXTT18=
EXTT19=
EXTT20=
EXTT21=
EXTT22=
PLAYORDER=
